<svg width="375" height="80" viewBox="0 0 375 80" fill="none" xmlns="http://www.w3.org/2000/svg">
<path d="M16.2055 39.7087H0V80H375V59.2788C367.608 56.0172 351.488 49.4938 346.143 49.4938C339.462 49.4938 323.541 21.4819 317.144 21.4819C310.747 21.4819 269.665 9.20266 265.684 6.13286C261.704 3.06306 238.107 39.7087 231.71 39.7087C225.313 39.7087 217.779 45.2729 214.651 42.7786C211.524 40.2844 187.926 48.9182 172.574 49.4938C157.221 50.0694 159.069 32.4181 144.996 30.6913C130.923 28.9645 110.595 2.4873 101.213 0.184949C91.8309 -2.1174 59.9886 17.8363 55.5819 17.8363C51.1751 17.8363 38.8078 18.4119 34.6854 17.8363C30.5629 17.2607 18.4799 39.7087 16.2055 39.7087Z" fill="#FFF3DC"/>
</svg>
